<mxfile host="app.diagrams.net" modified="2021-06-21T15:59:36.060Z" agent="5.0 (Windows NT 10.0; Win64; x64) AppleWebKit/537.36 (KHTML, like Gecko) Chrome/91.0.4472.77 Safari/537.36" etag="T-4HmlE1Z7dsQyJ5HESH" version="14.8.0" type="github">
  <diagram id="C5RBs43oDa-KdzZeNtuy" name="Page-1">
    <mxGraphModel dx="1422" dy="794" grid="1" gridSize="10" guides="1" tooltips="1" connect="1" arrows="1" fold="1" page="1" pageScale="1" pageWidth="827" pageHeight="1169" math="0" shadow="0">
      <root>
        <mxCell id="WIyWlLk6GJQsqaUBKTNV-0" />
        <mxCell id="WIyWlLk6GJQsqaUBKTNV-1" parent="WIyWlLk6GJQsqaUBKTNV-0" />
        <mxCell id="kNZeeyLY9zirJYCVrwu_-2" style="edgeStyle=none;rounded=0;orthogonalLoop=1;jettySize=auto;html=1;exitX=0.5;exitY=1;exitDx=0;exitDy=0;entryX=0.5;entryY=0;entryDx=0;entryDy=0;" edge="1" parent="WIyWlLk6GJQsqaUBKTNV-1" source="WIyWlLk6GJQsqaUBKTNV-3" target="kNZeeyLY9zirJYCVrwu_-0">
          <mxGeometry relative="1" as="geometry" />
        </mxCell>
        <mxCell id="kNZeeyLY9zirJYCVrwu_-3" style="edgeStyle=none;rounded=0;orthogonalLoop=1;jettySize=auto;html=1;exitX=0.5;exitY=1;exitDx=0;exitDy=0;entryX=0.5;entryY=0;entryDx=0;entryDy=0;" edge="1" parent="WIyWlLk6GJQsqaUBKTNV-1" source="WIyWlLk6GJQsqaUBKTNV-3" target="kNZeeyLY9zirJYCVrwu_-1">
          <mxGeometry relative="1" as="geometry" />
        </mxCell>
        <mxCell id="WIyWlLk6GJQsqaUBKTNV-3" value="메인페이지" style="rounded=1;whiteSpace=wrap;html=1;fontSize=12;glass=0;strokeWidth=1;shadow=0;" parent="WIyWlLk6GJQsqaUBKTNV-1" vertex="1">
          <mxGeometry x="100" y="10" width="120" height="40" as="geometry" />
        </mxCell>
        <mxCell id="kNZeeyLY9zirJYCVrwu_-12" style="edgeStyle=none;rounded=0;orthogonalLoop=1;jettySize=auto;html=1;exitX=0.5;exitY=1;exitDx=0;exitDy=0;entryX=0.5;entryY=0;entryDx=0;entryDy=0;" edge="1" parent="WIyWlLk6GJQsqaUBKTNV-1" source="kNZeeyLY9zirJYCVrwu_-0" target="kNZeeyLY9zirJYCVrwu_-11">
          <mxGeometry relative="1" as="geometry" />
        </mxCell>
        <mxCell id="kNZeeyLY9zirJYCVrwu_-0" value="회원가입" style="rounded=1;whiteSpace=wrap;html=1;arcSize=23;" vertex="1" parent="WIyWlLk6GJQsqaUBKTNV-1">
          <mxGeometry x="10" y="102" width="120" height="40" as="geometry" />
        </mxCell>
        <mxCell id="kNZeeyLY9zirJYCVrwu_-10" style="edgeStyle=none;rounded=0;orthogonalLoop=1;jettySize=auto;html=1;exitX=0.5;exitY=1;exitDx=0;exitDy=0;entryX=0.5;entryY=0;entryDx=0;entryDy=0;" edge="1" parent="WIyWlLk6GJQsqaUBKTNV-1" source="kNZeeyLY9zirJYCVrwu_-1" target="kNZeeyLY9zirJYCVrwu_-4">
          <mxGeometry relative="1" as="geometry" />
        </mxCell>
        <mxCell id="kNZeeyLY9zirJYCVrwu_-1" value="로그인" style="rounded=1;whiteSpace=wrap;html=1;" vertex="1" parent="WIyWlLk6GJQsqaUBKTNV-1">
          <mxGeometry x="180" y="102" width="120" height="40" as="geometry" />
        </mxCell>
        <mxCell id="kNZeeyLY9zirJYCVrwu_-7" style="edgeStyle=none;rounded=0;orthogonalLoop=1;jettySize=auto;html=1;exitX=0.5;exitY=1;exitDx=0;exitDy=0;entryX=0.5;entryY=0;entryDx=0;entryDy=0;" edge="1" parent="WIyWlLk6GJQsqaUBKTNV-1" source="kNZeeyLY9zirJYCVrwu_-4" target="kNZeeyLY9zirJYCVrwu_-5">
          <mxGeometry relative="1" as="geometry" />
        </mxCell>
        <mxCell id="kNZeeyLY9zirJYCVrwu_-8" style="edgeStyle=none;rounded=0;orthogonalLoop=1;jettySize=auto;html=1;exitX=1;exitY=0.5;exitDx=0;exitDy=0;entryX=0;entryY=0.5;entryDx=0;entryDy=0;" edge="1" parent="WIyWlLk6GJQsqaUBKTNV-1" source="kNZeeyLY9zirJYCVrwu_-4" target="kNZeeyLY9zirJYCVrwu_-6">
          <mxGeometry relative="1" as="geometry" />
        </mxCell>
        <mxCell id="kNZeeyLY9zirJYCVrwu_-4" value="아이디/비밀번호 체크" style="rhombus;whiteSpace=wrap;html=1;" vertex="1" parent="WIyWlLk6GJQsqaUBKTNV-1">
          <mxGeometry x="170" y="197" width="140" height="50" as="geometry" />
        </mxCell>
        <mxCell id="kNZeeyLY9zirJYCVrwu_-5" value="로그인 성공" style="rounded=1;whiteSpace=wrap;html=1;" vertex="1" parent="WIyWlLk6GJQsqaUBKTNV-1">
          <mxGeometry x="195" y="304" width="90" height="40" as="geometry" />
        </mxCell>
        <mxCell id="kNZeeyLY9zirJYCVrwu_-9" style="edgeStyle=none;rounded=0;orthogonalLoop=1;jettySize=auto;html=1;exitX=0.5;exitY=0;exitDx=0;exitDy=0;entryX=1;entryY=0.5;entryDx=0;entryDy=0;" edge="1" parent="WIyWlLk6GJQsqaUBKTNV-1" source="kNZeeyLY9zirJYCVrwu_-6" target="kNZeeyLY9zirJYCVrwu_-1">
          <mxGeometry relative="1" as="geometry">
            <Array as="points">
              <mxPoint x="395" y="122" />
            </Array>
          </mxGeometry>
        </mxCell>
        <mxCell id="kNZeeyLY9zirJYCVrwu_-6" value="로그인 실패" style="rounded=1;whiteSpace=wrap;html=1;" vertex="1" parent="WIyWlLk6GJQsqaUBKTNV-1">
          <mxGeometry x="350" y="202" width="90" height="40" as="geometry" />
        </mxCell>
        <mxCell id="kNZeeyLY9zirJYCVrwu_-14" style="edgeStyle=none;rounded=0;orthogonalLoop=1;jettySize=auto;html=1;exitX=0.5;exitY=1;exitDx=0;exitDy=0;entryX=0.5;entryY=0;entryDx=0;entryDy=0;" edge="1" parent="WIyWlLk6GJQsqaUBKTNV-1" source="kNZeeyLY9zirJYCVrwu_-11" target="kNZeeyLY9zirJYCVrwu_-13">
          <mxGeometry relative="1" as="geometry" />
        </mxCell>
        <mxCell id="kNZeeyLY9zirJYCVrwu_-11" value="회원정보 입력" style="shape=parallelogram;perimeter=parallelogramPerimeter;whiteSpace=wrap;html=1;fixedSize=1;" vertex="1" parent="WIyWlLk6GJQsqaUBKTNV-1">
          <mxGeometry x="10" y="180" width="120" height="40" as="geometry" />
        </mxCell>
        <mxCell id="kNZeeyLY9zirJYCVrwu_-16" style="edgeStyle=none;rounded=0;orthogonalLoop=1;jettySize=auto;html=1;exitX=0.5;exitY=1;exitDx=0;exitDy=0;entryX=0.5;entryY=0;entryDx=0;entryDy=0;" edge="1" parent="WIyWlLk6GJQsqaUBKTNV-1" source="kNZeeyLY9zirJYCVrwu_-13" target="kNZeeyLY9zirJYCVrwu_-15">
          <mxGeometry relative="1" as="geometry" />
        </mxCell>
        <mxCell id="kNZeeyLY9zirJYCVrwu_-13" value="데이터 유효성 체크" style="rhombus;whiteSpace=wrap;html=1;" vertex="1" parent="WIyWlLk6GJQsqaUBKTNV-1">
          <mxGeometry x="5" y="250" width="130" height="50" as="geometry" />
        </mxCell>
        <mxCell id="kNZeeyLY9zirJYCVrwu_-15" value="회원가입 성공&lt;br&gt;로그인 페이지 이동" style="rounded=1;whiteSpace=wrap;html=1;" vertex="1" parent="WIyWlLk6GJQsqaUBKTNV-1">
          <mxGeometry x="10" y="334" width="120" height="40" as="geometry" />
        </mxCell>
        <mxCell id="kNZeeyLY9zirJYCVrwu_-28" style="edgeStyle=none;rounded=0;orthogonalLoop=1;jettySize=auto;html=1;exitX=0.5;exitY=1;exitDx=0;exitDy=0;entryX=0.5;entryY=0;entryDx=0;entryDy=0;" edge="1" parent="WIyWlLk6GJQsqaUBKTNV-1" source="kNZeeyLY9zirJYCVrwu_-17" target="kNZeeyLY9zirJYCVrwu_-22">
          <mxGeometry relative="1" as="geometry" />
        </mxCell>
        <mxCell id="kNZeeyLY9zirJYCVrwu_-17" value="만물 등록" style="rounded=1;whiteSpace=wrap;html=1;" vertex="1" parent="WIyWlLk6GJQsqaUBKTNV-1">
          <mxGeometry x="92.5" y="500" width="110" height="40" as="geometry" />
        </mxCell>
        <mxCell id="kNZeeyLY9zirJYCVrwu_-18" value="만물 찾기" style="rounded=1;whiteSpace=wrap;html=1;" vertex="1" parent="WIyWlLk6GJQsqaUBKTNV-1">
          <mxGeometry x="530" y="500" width="110" height="40" as="geometry" />
        </mxCell>
        <mxCell id="kNZeeyLY9zirJYCVrwu_-37" style="edgeStyle=none;rounded=0;orthogonalLoop=1;jettySize=auto;html=1;exitX=0.5;exitY=1;exitDx=0;exitDy=0;entryX=0.5;entryY=0;entryDx=0;entryDy=0;" edge="1" parent="WIyWlLk6GJQsqaUBKTNV-1" source="kNZeeyLY9zirJYCVrwu_-19" target="kNZeeyLY9zirJYCVrwu_-17">
          <mxGeometry relative="1" as="geometry" />
        </mxCell>
        <mxCell id="kNZeeyLY9zirJYCVrwu_-38" style="edgeStyle=none;rounded=0;orthogonalLoop=1;jettySize=auto;html=1;entryX=0.5;entryY=0;entryDx=0;entryDy=0;exitX=0.5;exitY=1;exitDx=0;exitDy=0;" edge="1" parent="WIyWlLk6GJQsqaUBKTNV-1" source="kNZeeyLY9zirJYCVrwu_-19" target="kNZeeyLY9zirJYCVrwu_-18">
          <mxGeometry relative="1" as="geometry" />
        </mxCell>
        <mxCell id="kNZeeyLY9zirJYCVrwu_-19" value="메인페이지" style="rounded=1;whiteSpace=wrap;html=1;fontSize=12;glass=0;strokeWidth=1;shadow=0;" vertex="1" parent="WIyWlLk6GJQsqaUBKTNV-1">
          <mxGeometry x="310" y="390" width="120" height="40" as="geometry" />
        </mxCell>
        <mxCell id="kNZeeyLY9zirJYCVrwu_-29" style="edgeStyle=none;rounded=0;orthogonalLoop=1;jettySize=auto;html=1;exitX=0.5;exitY=1;exitDx=0;exitDy=0;entryX=0.5;entryY=0;entryDx=0;entryDy=0;" edge="1" parent="WIyWlLk6GJQsqaUBKTNV-1" source="kNZeeyLY9zirJYCVrwu_-22" target="kNZeeyLY9zirJYCVrwu_-23">
          <mxGeometry relative="1" as="geometry" />
        </mxCell>
        <mxCell id="kNZeeyLY9zirJYCVrwu_-30" style="edgeStyle=none;rounded=0;orthogonalLoop=1;jettySize=auto;html=1;exitX=1;exitY=0.5;exitDx=0;exitDy=0;entryX=0;entryY=0.5;entryDx=0;entryDy=0;" edge="1" parent="WIyWlLk6GJQsqaUBKTNV-1" source="kNZeeyLY9zirJYCVrwu_-22" target="kNZeeyLY9zirJYCVrwu_-24">
          <mxGeometry relative="1" as="geometry" />
        </mxCell>
        <mxCell id="kNZeeyLY9zirJYCVrwu_-22" value="로그인 유무" style="rhombus;whiteSpace=wrap;html=1;" vertex="1" parent="WIyWlLk6GJQsqaUBKTNV-1">
          <mxGeometry x="85" y="580" width="125" height="40" as="geometry" />
        </mxCell>
        <mxCell id="kNZeeyLY9zirJYCVrwu_-34" style="edgeStyle=none;rounded=0;orthogonalLoop=1;jettySize=auto;html=1;exitX=0.5;exitY=1;exitDx=0;exitDy=0;entryX=0.5;entryY=0;entryDx=0;entryDy=0;" edge="1" parent="WIyWlLk6GJQsqaUBKTNV-1" source="kNZeeyLY9zirJYCVrwu_-23" target="kNZeeyLY9zirJYCVrwu_-33">
          <mxGeometry relative="1" as="geometry" />
        </mxCell>
        <mxCell id="kNZeeyLY9zirJYCVrwu_-23" value="만물 등록 &lt;br&gt;페이지 이동" style="rounded=1;whiteSpace=wrap;html=1;" vertex="1" parent="WIyWlLk6GJQsqaUBKTNV-1">
          <mxGeometry x="92.5" y="640" width="110" height="40" as="geometry" />
        </mxCell>
        <mxCell id="kNZeeyLY9zirJYCVrwu_-24" value="로그인 페이지&lt;br&gt;에서 로그인" style="rounded=1;whiteSpace=wrap;html=1;" vertex="1" parent="WIyWlLk6GJQsqaUBKTNV-1">
          <mxGeometry x="235" y="580" width="100" height="40" as="geometry" />
        </mxCell>
        <mxCell id="kNZeeyLY9zirJYCVrwu_-32" style="edgeStyle=none;rounded=0;orthogonalLoop=1;jettySize=auto;html=1;exitX=0.5;exitY=1;exitDx=0;exitDy=0;" edge="1" parent="WIyWlLk6GJQsqaUBKTNV-1" source="kNZeeyLY9zirJYCVrwu_-26" target="kNZeeyLY9zirJYCVrwu_-27">
          <mxGeometry relative="1" as="geometry" />
        </mxCell>
        <mxCell id="kNZeeyLY9zirJYCVrwu_-36" style="edgeStyle=none;rounded=0;orthogonalLoop=1;jettySize=auto;html=1;exitX=1;exitY=0.5;exitDx=0;exitDy=0;entryX=1;entryY=0.5;entryDx=0;entryDy=0;" edge="1" parent="WIyWlLk6GJQsqaUBKTNV-1" source="kNZeeyLY9zirJYCVrwu_-26" target="kNZeeyLY9zirJYCVrwu_-33">
          <mxGeometry relative="1" as="geometry">
            <Array as="points">
              <mxPoint x="245.63" y="795" />
              <mxPoint x="245.63" y="730" />
            </Array>
          </mxGeometry>
        </mxCell>
        <mxCell id="kNZeeyLY9zirJYCVrwu_-26" value="데이터 유효성 체크" style="rhombus;whiteSpace=wrap;html=1;" vertex="1" parent="WIyWlLk6GJQsqaUBKTNV-1">
          <mxGeometry x="86.87" y="770" width="122.5" height="50" as="geometry" />
        </mxCell>
        <mxCell id="kNZeeyLY9zirJYCVrwu_-27" value="거래 글 등록 성공&lt;br&gt;만물 찾기 페이지 이동" style="rounded=1;whiteSpace=wrap;html=1;" vertex="1" parent="WIyWlLk6GJQsqaUBKTNV-1">
          <mxGeometry x="85" y="840" width="126.25" height="36" as="geometry" />
        </mxCell>
        <mxCell id="kNZeeyLY9zirJYCVrwu_-35" style="edgeStyle=none;rounded=0;orthogonalLoop=1;jettySize=auto;html=1;exitX=0.5;exitY=1;exitDx=0;exitDy=0;entryX=0.5;entryY=0;entryDx=0;entryDy=0;" edge="1" parent="WIyWlLk6GJQsqaUBKTNV-1" source="kNZeeyLY9zirJYCVrwu_-33" target="kNZeeyLY9zirJYCVrwu_-26">
          <mxGeometry relative="1" as="geometry" />
        </mxCell>
        <mxCell id="kNZeeyLY9zirJYCVrwu_-33" value="데이터 입력" style="rounded=1;whiteSpace=wrap;html=1;" vertex="1" parent="WIyWlLk6GJQsqaUBKTNV-1">
          <mxGeometry x="93.13" y="710" width="110" height="40" as="geometry" />
        </mxCell>
      </root>
    </mxGraphModel>
  </diagram>
</mxfile>
